<?xml version="1.0" encoding="UTF-8" standalone="no"?>
<svg
   xmlns:dc="http://purl.org/dc/elements/1.1/"
   xmlns:cc="http://creativecommons.org/ns#"
   xmlns:rdf="http://www.w3.org/1999/02/22-rdf-syntax-ns#"
   xmlns:svg="http://www.w3.org/2000/svg"
   xmlns="http://www.w3.org/2000/svg"
   xmlns:sodipodi="http://sodipodi.sourceforge.net/DTD/sodipodi-0.dtd"
   xmlns:inkscape="http://www.inkscape.org/namespaces/inkscape"
   viewBox="0 0 1280 1280"
   height="1280"
   width="1280"
   xml:space="preserve"
   version="1.1"
   id="svg2"
   inkscape:version="0.91 r13725"
   sodipodi:docname="app.svg"><sodipodi:namedview
     pagecolor="#ffffff"
     bordercolor="#666666"
     borderopacity="1"
     objecttolerance="10"
     gridtolerance="10"
     guidetolerance="10"
     inkscape:pageopacity="0"
     inkscape:pageshadow="2"
     inkscape:window-width="1600"
     inkscape:window-height="1149"
     id="namedview20"
     showgrid="false"
     inkscape:zoom="0.36875"
     inkscape:cx="761.0417"
     inkscape:cy="885.01538"
     inkscape:window-x="0"
     inkscape:window-y="27"
     inkscape:window-maximized="1"
     inkscape:current-layer="g10" /><metadata
     id="metadata8"><rdf:RDF><cc:Work
         rdf:about=""><dc:format>image/svg+xml</dc:format><dc:type
           rdf:resource="http://purl.org/dc/dcmitype/StillImage" /><dc:title></dc:title></cc:Work></rdf:RDF></metadata><defs
     id="defs6"><clipPath
       id="clipPath16"
       clipPathUnits="userSpaceOnUse"><path
         id="path18"
         d="m 0,1024 1280,0 L 1280,0 0,0 0,1024 Z"
         inkscape:connector-curvature="0" /></clipPath></defs><g
     transform="matrix(2.7353594,0,0,-2.7353594,-1107.6113,2039.9055)"
     id="g10"><g
       transform="translate(416.1574,511.7812)"
       id="g20"
       style="fill:#f9f9f9"><path
         inkscape:connector-curvature="0"
         id="path22"
         style="fill:#f9f9f9;fill-opacity:1;fill-rule:nonzero;stroke:none"
         d="m 0,0 c 0,123.015 99.724,222.739 222.739,222.739 123.015,0 222.739,-99.724 222.739,-222.739 0,-123.015 -99.724,-222.739 -222.739,-222.739 C 99.724,-222.739 0,-123.015 0,0" /></g><g
       transform="translate(518.909,640.7811)"
       id="g28"
       style="fill:#b3b3b3"><path
         inkscape:connector-curvature="0"
         id="path30"
         style="fill:#b3b3b3;fill-opacity:1;fill-rule:nonzero;stroke:none"
         d="m 0,0 101.934,-16.153 c 11.961,-1.896 24.145,-1.896 36.106,0 L 239.974,0 l 0,-38.028 -101.934,-16.154 c -11.961,-1.895 -24.145,-1.895 -36.106,0 L 0,-38.028 0,0 Z" /></g><g
       transform="translate(518.909,640.7811)"
       id="g32"><path
         inkscape:connector-curvature="0"
         id="path34"
         style="fill:none;stroke:#ffffff;stroke-width:1;stroke-linecap:butt;stroke-linejoin:miter;stroke-miterlimit:10;stroke-dasharray:none;stroke-opacity:1"
         d="m 0,0 101.934,-16.153 c 11.961,-1.896 24.145,-1.896 36.106,0 L 239.974,0 l 0,-38.028 -101.934,-16.154 c -11.961,-1.895 -24.145,-1.895 -36.106,0 L 0,-38.028 0,0 Z" /></g><g
       transform="translate(553.9865,526.0424)"
       id="g36"
       style="fill:#666666"><path
         inkscape:connector-curvature="0"
         id="path38"
         style="fill:#666666;fill-opacity:1;fill-rule:nonzero;stroke:none"
         d="m 0,0 0,-57.042 c 0,-11.147 3.714,-20.326 11.147,-27.538 13.768,-13.769 38.136,-20.654 73.106,-20.654 41.522,0 67.748,7.433 78.68,22.293 4.806,6.777 7.213,15.408 7.213,25.899 L 170.146,0 0,0 Z m -19.66,38.028 208.446,0 c 8.898,0 16.11,-7.212 16.11,-16.11 l 0,-81.256 c 0,-55.945 -40.324,-83.924 -120.971,-83.924 -33.879,0 -61.745,6.449 -83.596,19.342 -11.147,6.557 -19.835,15.357 -26.063,26.39 -6.229,11.039 -9.343,23.768 -9.343,38.192 l 0,81.948 c 0,8.515 6.902,15.418 15.417,15.418" /></g><g
       transform="translate(553.9865,526.0424)"
       id="g40"><path
         inkscape:connector-curvature="0"
         id="path42"
         style="fill:none;stroke:#ffffff;stroke-width:1;stroke-linecap:butt;stroke-linejoin:miter;stroke-miterlimit:10;stroke-dasharray:none;stroke-opacity:1"
         d="m 0,0 0,-57.042 c 0,-11.147 3.714,-20.326 11.147,-27.538 13.768,-13.769 38.136,-20.654 73.106,-20.654 41.522,0 67.748,7.433 78.68,22.293 4.806,6.777 7.213,15.408 7.213,25.899 L 170.146,0 0,0 Z m -19.66,38.028 208.446,0 c 8.898,0 16.11,-7.212 16.11,-16.11 l 0,-81.256 c 0,-55.945 -40.324,-83.924 -120.971,-83.924 -33.879,0 -61.745,6.449 -83.596,19.342 -11.147,6.557 -19.835,15.357 -26.063,26.39 -6.229,11.039 -9.343,23.768 -9.343,38.192 l 0,81.948 c 0,8.515 6.902,15.418 15.417,15.418 z" /></g><g
       transform="translate(523.1484,439.9793)"
       id="g44" /></g></svg>